<svg xmlns="http://www.w3.org/2000/svg" viewBox="0 0 1200 1200"><path d="M980.8 441.73c-11.67-49.07-28.5-93.06-50.02-130.77-21.66-37.94-46.5-66.95-73.83-86.22-24.26-17.1-49.79-25.77-75.89-25.77s-51.67 8.67-75.94 25.77c-27.33 19.26-52.16 48.26-73.8 86.2-21.51 37.7-38.33 81.69-50 130.75-4.3 18.06-7.81 36.55-10.57 55.37 16.53-8.83 35.4-13.84 55.44-13.84 65.1 0 117.87 52.77 117.87 117.87s-52.77 117.87-117.87 117.87c-19.91 0-38.66-4.94-55.11-13.66 10.33 69.06 30.85 132.21 60.23 183.71 21.64 37.95 46.46 66.95 73.79 86.21 24.27 17.1 49.82 25.77 75.95 25.77s51.67-8.67 75.93-25.77c27.32-19.26 52.14-48.26 73.77-86.19 21.53-37.72 38.36-81.7 50.03-130.76 11.91-50.05 17.94-103.3 17.94-158.27s-6.04-108.24-17.94-158.3Zm-477.41 158.3c0-107.47 21.65-209.6 61.38-291.36-20.69-34.43-44.16-60.98-69.83-78.97-24.29-17.03-49.86-25.66-76.01-25.66s-51.77 8.63-76.06 25.66c-27.31 19.14-52.12 47.96-73.74 85.66-21.49 37.45-38.29 81.15-49.94 129.89-3.82 15.99-7.03 32.31-9.64 48.9 15.07-7 31.87-10.91 49.58-10.91 65.1 0 117.87 52.77 117.87 117.87s-52.77 117.87-117.87 117.87c-17.91 0-34.88-4-50.08-11.14 10.35 68.36 30.81 130.85 60.07 181.85 21.62 37.7 46.42 66.52 73.73 85.66 24.3 17.03 49.89 25.66 76.08 25.66s51.77-8.63 76.06-25.66c26.23-18.38 50.14-45.72 71.13-81.25-40.6-82.21-62.73-185.39-62.73-294.08Z" style="fill:#fff"/></svg>